<?xml version="1.0" encoding="utf-8" standalone="no"?>
<!DOCTYPE svg PUBLIC "-//W3C//DTD SVG 1.1//EN"
  "http://www.w3.org/Graphics/SVG/1.1/DTD/svg11.dtd">
<!-- Created with matplotlib (https://matplotlib.org/) -->
<svg height="180.98pt" version="1.1" viewBox="0 0 296.9 180.98" width="296.9pt" xmlns="http://www.w3.org/2000/svg" xmlns:xlink="http://www.w3.org/1999/xlink">
 <metadata>
  <rdf:RDF xmlns:cc="http://creativecommons.org/ns#" xmlns:dc="http://purl.org/dc/elements/1.1/" xmlns:rdf="http://www.w3.org/1999/02/22-rdf-syntax-ns#">
   <cc:Work>
    <dc:type rdf:resource="http://purl.org/dc/dcmitype/StillImage"/>
    <dc:date>2021-04-09T16:27:00.213007</dc:date>
    <dc:format>image/svg+xml</dc:format>
    <dc:creator>
     <cc:Agent>
      <dc:title>Matplotlib v3.3.2, https://matplotlib.org/</dc:title>
     </cc:Agent>
    </dc:creator>
   </cc:Work>
  </rdf:RDF>
 </metadata>
 <defs>
  <style type="text/css">*{stroke-linecap:butt;stroke-linejoin:round;}</style>
 </defs>
 <g id="figure_1">
  <g id="patch_1">
   <path d="M 0 180.98 
L 296.9 180.98 
L 296.9 0 
L 0 0 
z
" style="fill:none;"/>
  </g>
  <g id="axes_1">
   <g id="patch_2">
    <path d="M 10.7 170.28 
L 289.7 170.28 
L 289.7 7.2 
L 10.7 7.2 
z
" style="fill:#ffffff;"/>
   </g>
   <g id="line2d_1">
    <path clip-path="url(#p4ecd5a0025)" d="M 23.381818 162.867273 
L 25.274602 162.635698 
L 27.167385 162.36463 
L 29.060169 162.048631 
L 30.952952 161.681772 
L 32.845735 161.257628 
L 34.738519 160.769292 
L 36.631302 160.209399 
L 38.524086 159.570163 
L 40.416869 158.843428 
L 42.309653 158.020734 
L 44.202436 157.093404 
L 46.09522 156.052645 
L 47.988003 154.889671 
L 49.880787 153.595839 
L 51.77357 152.162807 
L 53.666354 150.582708 
L 55.559137 148.848335 
L 57.45192 146.953345 
L 59.344704 144.892468 
L 61.237487 142.66172 
L 63.130271 140.258623 
L 65.023054 137.682415 
L 66.915838 134.93426 
L 68.808621 132.017432 
L 70.701405 128.937488 
L 72.594188 125.702411 
L 74.486972 122.32272 
L 76.379755 118.811541 
L 78.272539 115.184638 
L 80.165322 111.460392 
L 82.058105 107.659732 
L 83.950889 103.806013 
L 85.843672 99.92483 
L 87.736456 96.043792 
L 89.629239 92.192226 
L 91.522023 88.400844 
L 93.414806 84.701358 
L 95.30759 81.126051 
L 97.200373 77.707327 
L 99.093157 74.477228 
L 100.98594 71.466939 
L 102.878724 68.706293 
L 104.771507 66.223279 
L 106.66429 64.043572 
L 108.557074 62.190093 
L 110.449857 60.682605 
L 112.342641 59.537364 
L 114.235424 58.76683 
L 116.128208 58.379434 
L 118.020991 58.379434 
L 119.913775 58.76683 
L 121.806558 59.537364 
L 123.699342 60.682605 
L 125.592125 62.190093 
L 127.484909 64.043572 
L 129.377692 66.223279 
L 131.270475 68.706293 
L 133.163259 71.466939 
L 135.056042 74.477228 
L 136.948826 77.707327 
L 138.841609 81.126051 
L 140.734393 84.701358 
L 142.627176 88.400844 
L 144.51996 92.192226 
L 146.412743 96.043792 
L 148.305527 99.92483 
L 150.19831 103.806013 
L 152.091094 107.659732 
L 153.983877 111.460392 
L 155.87666 115.184638 
L 157.769444 118.811541 
L 159.662227 122.32272 
L 161.555011 125.702411 
L 163.447794 128.937488 
L 165.340578 132.017432 
L 167.233361 134.93426 
L 169.126145 137.682415 
L 171.018928 140.258623 
L 172.911712 142.66172 
L 174.804495 144.892468 
L 176.697279 146.953345 
L 178.590062 148.848335 
L 180.482845 150.582708 
L 182.375629 152.162807 
L 184.268412 153.595839 
L 186.161196 154.889671 
L 188.053979 156.052645 
L 189.946763 157.093404 
L 191.839546 158.020734 
L 193.73233 158.843428 
L 195.625113 159.570163 
L 197.517897 160.209399 
L 199.41068 160.769292 
L 201.303464 161.257628 
L 203.196247 161.681772 
L 205.08903 162.048631 
L 206.981814 162.36463 
L 208.874597 162.635698 
L 210.767381 162.867273 
" style="fill:none;stroke:#f3722c;stroke-linecap:square;"/>
   </g>
   <g id="line2d_2">
    <path clip-path="url(#p4ecd5a0025)" d="M 144.51658 162.380845 
L 145.85498 162.05335 
L 147.19338 161.670001 
L 148.53178 161.223111 
L 149.87018 160.704294 
L 151.20858 160.104463 
L 152.54698 159.413852 
L 153.88538 158.622044 
L 155.22378 157.718028 
L 156.56218 156.690269 
L 157.90058 155.526804 
L 159.23898 154.215361 
L 160.57738 152.743507 
L 161.91578 151.098813 
L 163.25418 149.269058 
L 164.59258 147.242445 
L 165.93098 145.007847 
L 167.26938 142.555073 
L 168.60778 139.875153 
L 169.94618 136.960633 
L 171.28458 133.805879 
L 172.62298 130.407386 
L 173.96138 126.764078 
L 175.29978 122.8776 
L 176.63818 118.752582 
L 177.97658 114.396884 
L 179.31498 109.821794 
L 180.65338 105.042189 
L 181.99178 100.076632 
L 183.33018 94.947417 
L 184.66858 89.680537 
L 186.00698 84.305593 
L 187.34538 78.855611 
L 188.68378 73.36679 
L 190.02218 67.878172 
L 191.360581 62.431236 
L 192.698981 57.069412 
L 194.037381 51.837548 
L 195.375781 46.7813 
L 196.714181 41.946495 
L 198.052581 37.378445 
L 199.390981 33.121254 
L 200.729381 29.217111 
L 202.067781 25.705599 
L 203.406181 22.623028 
L 204.744581 20.001813 
L 206.082981 17.869902 
L 207.421381 16.250288 
L 208.759781 15.160587 
L 210.098181 14.612727 
L 211.436581 14.612727 
L 212.774981 15.160587 
L 214.113381 16.250288 
L 215.451781 17.869902 
L 216.790181 20.001813 
L 218.128581 22.623028 
L 219.466981 25.705599 
L 220.805381 29.217111 
L 222.143781 33.121254 
L 223.482181 37.378445 
L 224.820581 41.946495 
L 226.158981 46.7813 
L 227.497381 51.837548 
L 228.835781 57.069412 
L 230.174181 62.431236 
L 231.512581 67.878172 
L 232.850981 73.36679 
L 234.189381 78.855611 
L 235.527781 84.305593 
L 236.866181 89.680537 
L 238.204581 94.947417 
L 239.542981 100.076632 
L 240.881381 105.042189 
L 242.219781 109.821794 
L 243.558181 114.396884 
L 244.896581 118.752582 
L 246.234981 122.8776 
L 247.573381 126.764078 
L 248.911781 130.407386 
L 250.250181 133.805879 
L 251.588581 136.960633 
L 252.926981 139.875153 
L 254.265381 142.555073 
L 255.603781 145.007847 
L 256.942182 147.242445 
L 258.280582 149.269058 
L 259.618982 151.098813 
L 260.957382 152.743507 
L 262.295782 154.215361 
L 263.634182 155.526804 
L 264.972582 156.690269 
L 266.310982 157.718028 
L 267.649382 158.622044 
L 268.987782 159.413852 
L 270.326182 160.104463 
L 271.664582 160.704294 
L 273.002982 161.223111 
L 274.341382 161.670001 
L 275.679782 162.05335 
L 277.018182 162.380845 
" style="fill:none;stroke:#577590;stroke-linecap:square;"/>
   </g>
   <g id="patch_3">
    <path d="M 10.7 170.28 
L 10.7 7.2 
" style="fill:none;stroke:#000000;stroke-linecap:square;stroke-linejoin:miter;stroke-width:0.8;"/>
   </g>
   <g id="patch_4">
    <path d="M 289.7 170.28 
L 289.7 7.2 
" style="fill:none;stroke:#000000;stroke-linecap:square;stroke-linejoin:miter;stroke-width:0.8;"/>
   </g>
   <g id="patch_5">
    <path d="M 10.7 170.28 
L 289.7 170.28 
" style="fill:none;stroke:#000000;stroke-linecap:square;stroke-linejoin:miter;stroke-width:0.8;"/>
   </g>
   <g id="patch_6">
    <path d="M 10.7 7.2 
L 289.7 7.2 
" style="fill:none;stroke:#000000;stroke-linecap:square;stroke-linejoin:miter;stroke-width:0.8;"/>
   </g>
   <g id="legend_1">
    <g id="patch_7">
     <path d="M 17.7 44.278125 
L 78.389063 44.278125 
Q 80.389063 44.278125 80.389063 42.278125 
L 80.389063 14.2 
Q 80.389063 12.2 78.389063 12.2 
L 17.7 12.2 
Q 15.7 12.2 15.7 14.2 
L 15.7 42.278125 
Q 15.7 44.278125 17.7 44.278125 
z
" style="fill:#ffffff;opacity:0.8;stroke:#cccccc;stroke-linejoin:miter;"/>
    </g>
    <g id="line2d_3">
     <path d="M 19.7 20.059375 
L 39.7 20.059375 
" style="fill:none;stroke:#f3722c;stroke-linecap:square;"/>
    </g>
    <g id="line2d_4"/>
    <g id="text_1">
     <!-- class 1 -->
     <g transform="translate(47.7 23.559375)scale(0.1 -0.1)">
      <defs>
       <path d="M 42.5 4.203125 
Q 34.09375 -0.703125 26.203125 -0.703125 
Q 21.09375 -0.703125 16.9375 1.09375 
Q 12.796875 2.90625 9.84375 6.15625 
Q 6.90625 9.40625 5.296875 13.953125 
Q 3.703125 18.5 3.703125 24.09375 
Q 3.703125 29.703125 5.453125 34.296875 
Q 7.203125 38.90625 10.296875 42.203125 
Q 13.40625 45.5 17.75 47.296875 
Q 22.09375 49.09375 27.40625 49.09375 
Q 34.59375 49.09375 38.5 46.390625 
Q 42.40625 43.703125 42.40625 39.296875 
Q 42.40625 36.90625 40.90625 35.453125 
Q 39.40625 34 36.796875 34 
Q 34.5 34 32.296875 35.5 
L 32.296875 43.703125 
Q 30 45.09375 27.5 45.09375 
Q 21 45.09375 16.890625 39.6875 
Q 12.796875 34.296875 12.796875 24.796875 
Q 12.796875 15.5 17.390625 10.34375 
Q 22 5.203125 29.796875 5.203125 
Q 36.203125 5.203125 42.5 9.40625 
L 42.5 4.203125 
z
" id="Charter-99"/>
       <path d="M 2.796875 3.59375 
L 8.703125 4.09375 
L 10.40625 5.703125 
L 10.40625 66.90625 
L 2.703125 66.90625 
L 2.703125 70 
L 14.90625 73.59375 
L 18.703125 73.59375 
L 18.703125 5.703125 
L 20.5 4.09375 
L 26.203125 3.59375 
L 26.203125 0 
L 2.796875 0 
z
" id="Charter-108"/>
       <path d="M 33.40625 5.796875 
Q 28.59375 2.59375 24.59375 0.9375 
Q 20.59375 -0.703125 17 -0.703125 
Q 11 -0.703125 7.59375 2.84375 
Q 4.203125 6.40625 4.203125 12.09375 
Q 4.203125 16 5.953125 18.640625 
Q 7.703125 21.296875 11.296875 23.296875 
Q 14.90625 25.296875 20.40625 26.890625 
Q 25.90625 28.5 33.40625 30.296875 
L 33.40625 33.5 
Q 33.40625 39.5 31.5 42.09375 
Q 29.59375 44.703125 24.203125 44.703125 
Q 20.5 44.703125 16.59375 43.09375 
L 16.59375 34.703125 
L 9.703125 34.703125 
Q 8 34.703125 7.296875 35.34375 
Q 6.59375 36 6.59375 37.796875 
Q 6.59375 40.09375 8 42.140625 
Q 9.40625 44.203125 12 45.75 
Q 14.59375 47.296875 18.34375 48.1875 
Q 22.09375 49.09375 26.796875 49.09375 
Q 34.703125 49.09375 38.203125 45.6875 
Q 41.703125 42.296875 41.703125 34.703125 
L 41.703125 5.703125 
L 43.5 4.09375 
L 48.796875 3.59375 
L 48.796875 0 
L 34.703125 0 
z
M 33.40625 26.796875 
Q 28.09375 25.296875 24.25 24 
Q 20.40625 22.703125 17.90625 21.140625 
Q 15.40625 19.59375 14.203125 17.59375 
Q 13 15.59375 13 12.90625 
Q 13 9.203125 15.09375 6.953125 
Q 17.203125 4.703125 21 4.703125 
Q 23.5 4.703125 26.546875 5.84375 
Q 29.59375 7 33.40625 9.203125 
z
" id="Charter-97"/>
       <path d="M 34.40625 35.59375 
L 29.5 35.59375 
L 28.703125 42.703125 
Q 24.796875 44.796875 21.296875 44.796875 
Q 17.296875 44.796875 15.140625 42.890625 
Q 13 41 13 37.59375 
Q 13 34.40625 15.140625 32.453125 
Q 17.296875 30.5 21.5 28.5 
Q 24.09375 27.203125 26.84375 25.953125 
Q 29.59375 24.703125 32.09375 22.703125 
Q 35.90625 19.703125 35.90625 14.09375 
Q 35.90625 7.09375 31 3.09375 
Q 26.09375 -0.90625 17.203125 -0.90625 
Q 13.40625 -0.90625 10.09375 -0.34375 
Q 6.796875 0.203125 4.203125 1.203125 
L 4.203125 14.203125 
L 9 14.203125 
L 10.203125 5.703125 
Q 14.40625 3.296875 18.703125 3.296875 
Q 23.09375 3.296875 25.59375 5.59375 
Q 28.09375 7.90625 28.09375 11.40625 
Q 28.09375 13.296875 27.4375 14.6875 
Q 26.796875 16.09375 25.5 17.1875 
Q 24.203125 18.296875 22.296875 19.296875 
Q 20.40625 20.296875 17.90625 21.40625 
Q 11.5 24.203125 8.25 27.140625 
Q 5 30.09375 5 35.09375 
Q 5 41.703125 9.546875 45.390625 
Q 14.09375 49.09375 22.703125 49.09375 
Q 29.40625 49.09375 34.40625 46.90625 
z
" id="Charter-115"/>
       <path id="Charter-32"/>
       <path d="M 33.90625 68.296875 
L 33.90625 6.203125 
L 35.09375 4.703125 
L 45.90625 4.203125 
L 45.90625 0 
L 12.40625 0 
L 12.40625 4.296875 
L 23.90625 4.90625 
L 25.09375 6.59375 
L 25.09375 60.40625 
L 9.40625 57.59375 
L 9.40625 61.796875 
L 31.09375 68.296875 
z
" id="Charter-49"/>
      </defs>
      <use xlink:href="#Charter-99"/>
      <use x="44.599991" xlink:href="#Charter-108"/>
      <use x="72.799988" xlink:href="#Charter-97"/>
      <use x="123.499985" xlink:href="#Charter-115"/>
      <use x="163.499969" xlink:href="#Charter-115"/>
      <use x="203.499954" xlink:href="#Charter-32"/>
      <use x="231.299942" xlink:href="#Charter-49"/>
     </g>
    </g>
    <g id="line2d_5">
     <path d="M 19.7 34.598438 
L 39.7 34.598438 
" style="fill:none;stroke:#577590;stroke-linecap:square;"/>
    </g>
    <g id="line2d_6"/>
    <g id="text_2">
     <!-- class 2 -->
     <g transform="translate(47.7 38.098438)scale(0.1 -0.1)">
      <defs>
       <path d="M 44.203125 7.90625 
L 46 16.40625 
L 50.5 16.40625 
L 50.5 0 
L 4.203125 0 
L 4.203125 6.296875 
Q 12.40625 13 18.796875 18.5 
Q 25.203125 24 29.59375 28.953125 
Q 34 33.90625 36.296875 38.546875 
Q 38.59375 43.203125 38.59375 48.09375 
Q 38.59375 55.296875 35.09375 59.25 
Q 31.59375 63.203125 25.296875 63.203125 
Q 23 63.203125 20.84375 62.640625 
Q 18.703125 62.09375 16.40625 60.796875 
L 16.40625 50.09375 
Q 14.296875 48.59375 11.90625 48.59375 
Q 9.296875 48.59375 7.796875 50.09375 
Q 6.296875 51.59375 6.296875 54.203125 
Q 6.296875 56.796875 7.84375 59.34375 
Q 9.40625 61.90625 12.25 63.90625 
Q 15.09375 65.90625 18.9375 67.09375 
Q 22.796875 68.296875 27.5 68.296875 
Q 32.296875 68.296875 36.140625 66.9375 
Q 40 65.59375 42.703125 63.09375 
Q 45.40625 60.59375 46.84375 57.09375 
Q 48.296875 53.59375 48.296875 49.40625 
Q 48.296875 44.703125 46.046875 40.09375 
Q 43.796875 35.5 39.4375 30.546875 
Q 35.09375 25.59375 28.75 20.046875 
Q 22.40625 14.5 14.09375 7.90625 
z
" id="Charter-50"/>
      </defs>
      <use xlink:href="#Charter-99"/>
      <use x="44.599991" xlink:href="#Charter-108"/>
      <use x="72.799988" xlink:href="#Charter-97"/>
      <use x="123.499985" xlink:href="#Charter-115"/>
      <use x="163.499969" xlink:href="#Charter-115"/>
      <use x="203.499954" xlink:href="#Charter-32"/>
      <use x="231.299942" xlink:href="#Charter-50"/>
     </g>
    </g>
   </g>
  </g>
 </g>
 <defs>
  <clipPath id="p4ecd5a0025">
   <rect height="163.08" width="279" x="10.7" y="7.2"/>
  </clipPath>
 </defs>
</svg>
